<?xml version="1.0" encoding="UTF-8"?>
<svg width="128pt" height="128pt" version="1.1" viewBox="0 0 128 128" xmlns="http://www.w3.org/2000/svg">
 <g>
  <path d="m120.5 56.039c-0.19922-1.3242-1.2383-2.3633-2.5625-2.5625l-4.5703-0.57422h0.003906c-0.99219-7.4102-4.7266-14.184-10.473-18.969v-20.582c-0.003907-0.97656-0.48047-1.8867-1.2773-2.4453-0.78516-0.57031-1.793-0.73828-2.7148-0.44922-2.625 0.84375-5.2344 1.793-7.8086 2.8281v-3.8398c-0.003906-0.96484-0.46875-1.8711-1.2461-2.4414-0.78125-0.57031-1.7852-0.73828-2.7109-0.44922-57.445 18.316-78.781 73.789-79.664 76.145-0.58984 1.5703 0.20703 3.3203 1.7773 3.9062 1.5703 0.58594 3.3164-0.21094 3.9062-1.7812 0.19141-0.53906 20.148-52.48 71.859-71.156v16.5c0.003907 1.4922 1.0859 2.7578 2.5586 2.9961 5.3906 1.043 10.285 3.8477 13.906 7.9766 3.625 4.125 5.7734 9.3398 6.1133 14.82 0.13281 1.4102 1.2305 2.5391 2.6367 2.7148l4.4688 0.5625c0.14062 5.2461-1.1914 18.254-17.461 22.848-5.3125 1.3516-9.8203 4.8555-12.441 9.6641-6.1445 11.227-1.4727 27.035-1.2812 27.699 0.55078 1.4922 2.1641 2.3047 3.6914 1.8633 1.5312-0.44531 2.4531-1.9961 2.1211-3.5508 0-0.14062-4.1211-14.078 0.80469-23.039v-0.003906c1.8398-3.375 5.0195-5.8164 8.7578-6.7188 25.418-7.2578 21.645-31.68 21.605-31.961zm-23.719-38.398v12.391-0.003906c-1.8281-0.91016-3.7344-1.6523-5.6953-2.2148v-7.9375c1.8672-0.83984 3.7734-1.5977 5.6953-2.2891z"/>
  <path d="m97.613 57.883v-9.793c0.054688-0.83594-0.24219-1.6602-0.8125-2.2695-0.57422-0.61328-1.375-0.96094-2.2148-0.96094-0.83984 0-1.6406 0.34766-2.2148 0.96094-0.57422 0.60938-0.86719 1.4336-0.8125 2.2695v9.793c-0.054688 0.83594 0.23828 1.6562 0.8125 2.2695 0.57422 0.61328 1.375 0.96094 2.2148 0.96094 0.83984 0 1.6406-0.34766 2.2148-0.96094 0.57031-0.61328 0.86719-1.4336 0.8125-2.2695z"/>
 </g>
</svg>
